<svg width="89" height="26" viewBox="0 0 89 26" fill="none" xmlns="http://www.w3.org/2000/svg">
<path fill-rule="evenodd" clip-rule="evenodd" d="M31.3271 12.046V19.7247H28.4453V12.6592C28.4453 9.22904 30.0674 7.52499 33.2907 7.52499C34.7422 7.52499 35.8522 7.86558 36.6631 8.54731C37.4743 7.88855 38.5842 7.57039 40.0357 7.57039C43.2591 7.57039 44.8594 9.27426 44.8386 12.7048V19.7701H43.3656C42.4264 19.7019 41.957 19.2253 41.957 18.2709V12.0912C41.8928 10.8417 41.2526 10.2282 39.9931 10.2282C38.7335 10.2282 38.0934 10.8417 38.0721 12.0912V19.7245H35.212V12.046C35.148 10.7965 34.5076 10.1834 33.2481 10.1834C31.9885 10.1834 31.3481 10.7965 31.3271 12.046ZM47.9542 7.7066C48.872 7.7066 49.3202 8.18392 49.3202 9.16046V19.7247H46.4811V7.7066H47.9542ZM47.9542 4.27625C48.8935 4.27625 49.3416 4.77583 49.3202 5.75293V6.63905H46.4811V4.27625H47.9542ZM56.0868 19.9972C52.6715 19.9972 50.9209 17.9074 50.8354 13.7727C50.8354 9.66061 52.5645 7.59318 56.0439 7.52517C58.7761 7.52517 60.3979 8.81989 60.889 11.4327H57.7942C57.4526 10.6146 56.855 10.1832 55.9584 10.1832C54.4645 10.1832 53.7169 11.3871 53.7169 13.7725C53.7169 16.1581 54.5071 17.3618 56.0868 17.3396C56.7482 17.3396 57.3244 17.0439 57.7942 16.4761C58.0717 16.1805 58.3915 16.0441 58.7548 16.0441H60.889C60.3769 18.4976 58.7119 20.0653 56.0868 19.9972ZM65.1791 13.7725C65.2004 16.1123 65.9475 17.2936 67.399 17.2936C68.8503 17.2936 69.5763 16.0671 69.5977 13.6819C69.5977 11.3417 68.8716 10.183 67.4202 10.183C65.9262 10.183 65.1791 11.3871 65.1791 13.7725ZM72.5645 13.7725C72.5645 17.9072 70.8354 19.997 67.4202 19.997C64.0051 19.997 62.2976 17.9072 62.2976 13.7727C62.2976 9.59222 64.0051 7.52517 67.4202 7.52517C70.8354 7.52517 72.5645 9.59203 72.5645 13.7725ZM76.7691 5.75293V19.7247H73.93V4.27625H75.4029C76.15 4.27625 76.7691 4.95779 76.7691 5.75293ZM81.251 12.4094H85.499C85.3282 10.8191 84.6236 10.0014 83.4069 10.0014C82.1905 10.0014 81.4645 10.8191 81.251 12.4094ZM83.4069 19.9974C79.9918 19.8838 78.2842 17.771 78.2842 13.6822C78.2842 9.5926 80.013 7.54796 83.4498 7.52517C87.0356 7.52517 88.7219 9.86505 88.5084 14.5679H81.2084C81.315 16.4079 82.0625 17.3396 83.4498 17.3396C84.1112 17.3396 84.7305 17.0441 85.2852 16.4761C85.5415 16.1805 85.8616 16.0443 86.2459 16.0443H88.3376C87.7187 18.5887 86.1821 19.9974 83.4069 19.9974Z" fill="#1A1632"/>
<path fill-rule="evenodd" clip-rule="evenodd" d="M1.32567 11.1662C1.32567 5.94 5.57243 1.70328 10.8111 1.70328C12.8389 1.70328 14.7167 2.33743 16.2581 3.4181C16.2979 3.47195 16.3466 3.52064 16.4039 3.5619C20.0536 6.1916 20.0868 10.2911 19.0691 13.0766C18.8172 13.766 18.5071 14.3532 18.1887 14.7961C17.8612 15.2519 17.5623 15.5034 17.3544 15.5987C17.2578 15.6428 17.2104 15.64 17.2009 15.6388C17.1991 15.6388 17.1828 15.6385 17.1467 15.6019C17.0442 15.4981 16.8719 15.1845 16.792 14.4528V9.85897V9.27575C16.792 8.82509 16.5169 8.41983 16.0975 8.25245L13.0611 7.04075L13.043 7.03354L13.0246 7.0274L10.5174 6.19366C10.2838 6.11595 10.0307 6.11838 9.79862 6.20055L3.6328 8.38326C2.87066 8.65305 2.84194 9.71776 3.58843 10.0281L5.30273 10.7406V14.2014C5.30273 14.6302 5.55611 15.0461 5.99225 15.2137C6.84935 15.543 8.5538 16.0309 10.3845 16.0309C11.6636 16.0309 12.8226 15.7928 13.669 15.5382C14.0196 15.4329 14.2181 15.064 14.1124 14.7143C14.0068 14.3646 13.637 14.1666 13.2864 14.272C12.5334 14.4985 11.5054 14.7083 10.3845 14.7083C8.8698 14.7083 7.42727 14.3256 6.62842 14.0388V10.5203C6.62842 10.4827 6.62528 10.446 6.61927 10.4102C6.66989 10.1133 6.51103 9.81018 6.22051 9.68941L5.1566 9.24716L10.1703 7.47232L12.5868 8.27592L15.4663 9.42498V9.85897V14.4879V14.522L15.4698 14.5559C15.5572 15.3988 15.7748 16.0967 16.2017 16.5295C16.4294 16.7604 16.7131 16.9105 17.0352 16.951C17.3483 16.9903 17.6465 16.92 17.9074 16.8006C18.414 16.5686 18.8765 16.1089 19.2661 15.5667C19.6649 15.0118 20.028 14.3143 20.3147 13.5295C21.4169 10.5125 21.4813 5.88063 17.5576 2.77488C17.5199 2.7207 17.4734 2.67126 17.4183 2.62878C15.5913 1.21958 13.2984 0.380737 10.8111 0.380737C4.84028 0.380737 0 5.20958 0 11.1662C0 12.5925 0.578019 14.1101 1.40011 15.5631C2.22833 17.027 3.34053 18.4879 4.48908 19.816C6.78677 22.4729 9.28432 24.6601 10.1059 25.3592C10.5174 25.7093 11.1123 25.7029 11.5178 25.3578C12.2288 24.7528 14.1802 23.0458 16.1745 20.8873C16.4227 20.6188 16.4056 20.2004 16.1365 19.9529C15.8673 19.7053 15.4479 19.7224 15.1999 19.991C13.3848 21.9553 11.6018 23.5402 10.8111 24.2202C9.8837 23.4227 7.59693 21.3851 5.49283 18.9521C4.3759 17.6606 3.32405 16.273 2.55458 14.9131C1.77898 13.5423 1.32567 12.2608 1.32567 11.1662ZM14.2994 10.0202C14.4542 10.3511 14.3107 10.7447 13.979 10.8991L10.8583 12.352C10.5527 12.4942 10.1987 12.4895 9.89708 12.3389L8.3205 11.5526C7.99307 11.3892 7.86035 10.992 8.02407 10.6654C8.18779 10.3387 8.58593 10.2063 8.91336 10.3696L10.3945 11.1084L13.4184 9.70058C13.7502 9.54614 14.1445 9.68923 14.2994 10.0202Z" fill="url(#paint0_linear_458_3139)"/>
<defs>
<linearGradient id="paint0_linear_458_3139" x1="10.4821" y1="0.380737" x2="10.4821" y2="25.6192" gradientUnits="userSpaceOnUse">
<stop stop-color="#2A70EF"/>
<stop offset="1" stop-color="#21F7FD"/>
</linearGradient>
</defs>
</svg>
