<svg width="89" height="26" viewBox="0 0 89 26" fill="none" xmlns="http://www.w3.org/2000/svg">
<path fill-rule="evenodd" clip-rule="evenodd" d="M31.3271 11.6653V19.344H28.4453V12.2785C28.4453 8.84831 30.0674 7.14425 33.2907 7.14425C34.7422 7.14425 35.8522 7.48485 36.6631 8.16657C37.4743 7.50781 38.5842 7.18965 40.0357 7.18965C43.2591 7.18965 44.8594 8.89353 44.8386 12.3241V19.3894H43.3656C42.4264 19.3212 41.957 18.8445 41.957 17.8902V11.7105C41.8928 10.461 41.2526 9.84749 39.9931 9.84749C38.7335 9.84749 38.0934 10.461 38.0721 11.7105V19.3438H35.212V11.6653C35.148 10.4158 34.5076 9.80264 33.2481 9.80264C31.9885 9.80264 31.3481 10.4158 31.3271 11.6653ZM47.9542 7.32586C48.872 7.32586 49.3202 7.80319 49.3202 8.77972V19.344H46.4811V7.32586H47.9542ZM47.9542 3.89551C48.8935 3.89551 49.3416 4.39509 49.3202 5.37219V6.25831H46.4811V3.89551H47.9542ZM56.0868 19.6165C52.6715 19.6165 50.9209 17.5267 50.8354 13.3919C50.8354 9.27988 52.5645 7.21244 56.0439 7.14443C58.7761 7.14443 60.3979 8.43916 60.889 11.052H57.7942C57.4526 10.2338 56.855 9.80245 55.9584 9.80245C54.4645 9.80245 53.7169 11.0064 53.7169 13.3917C53.7169 15.7774 54.5071 16.9811 56.0868 16.9589C56.7482 16.9589 57.3244 16.6631 57.7942 16.0953C58.0717 15.7998 58.3915 15.6634 58.7548 15.6634H60.889C60.3769 18.1169 58.7119 19.6845 56.0868 19.6165ZM65.1791 13.3917C65.2004 15.7316 65.9475 16.9129 67.399 16.9129C68.8503 16.9129 69.5763 15.6864 69.5977 13.3012C69.5977 10.9609 68.8716 9.80227 67.4202 9.80227C65.9262 9.80227 65.1791 11.0064 65.1791 13.3917ZM72.5645 13.3917C72.5645 17.5265 70.8354 19.6163 67.4202 19.6163C64.0051 19.6163 62.2976 17.5265 62.2976 13.3919C62.2976 9.21148 64.0051 7.14443 67.4202 7.14443C70.8354 7.14443 72.5645 9.21129 72.5645 13.3917ZM76.7691 5.37219V19.344H73.93V3.89551H75.4029C76.15 3.89551 76.7691 4.57705 76.7691 5.37219ZM81.251 12.0287H85.499C85.3282 10.4384 84.6236 9.62063 83.4069 9.62063C82.1905 9.62063 81.4645 10.4384 81.251 12.0287ZM83.4069 19.6167C79.9918 19.5031 78.2842 17.3902 78.2842 13.3015C78.2842 9.21186 80.013 7.16722 83.4498 7.14443C87.0356 7.14443 88.7219 9.48431 88.5084 14.1871H81.2084C81.315 16.0271 82.0625 16.9589 83.4498 16.9589C84.1112 16.9589 84.7305 16.6633 85.2852 16.0953C85.5415 15.7998 85.8616 15.6636 86.2459 15.6636H88.3376C87.7187 18.208 86.1821 19.6167 83.4069 19.6167Z" fill="white"/>
<path fill-rule="evenodd" clip-rule="evenodd" d="M1.32567 10.7855C1.32567 5.55926 5.57243 1.32254 10.8111 1.32254C12.8389 1.32254 14.7167 1.9567 16.2581 3.03736C16.2979 3.09121 16.3466 3.1399 16.4039 3.18117C20.0536 5.81086 20.0868 9.91033 19.0691 12.6959C18.8172 13.3853 18.5071 13.9725 18.1887 14.4154C17.8612 14.8712 17.5623 15.1227 17.3544 15.2179C17.2578 15.2621 17.2104 15.2593 17.2009 15.2581C17.1991 15.2581 17.1828 15.2578 17.1467 15.2211C17.0442 15.1174 16.8719 14.8038 16.792 14.0721V9.47823V8.89501C16.792 8.44435 16.5169 8.03909 16.0975 7.87171L13.0611 6.66002L13.043 6.6528L13.0246 6.64666L10.5174 5.81292C10.2838 5.73522 10.0307 5.73764 9.79862 5.81981L3.6328 8.00252C2.87066 8.27232 2.84194 9.33703 3.58843 9.64732L5.30273 10.3599V13.8206C5.30273 14.2494 5.55611 14.6654 5.99225 14.833C6.84935 15.1622 8.5538 15.6501 10.3845 15.6501C11.6636 15.6501 12.8226 15.4121 13.669 15.1575C14.0196 15.0521 14.2181 14.6833 14.1124 14.3335C14.0068 13.9839 13.637 13.7859 13.2864 13.8913C12.5334 14.1178 11.5054 14.3276 10.3845 14.3276C8.8698 14.3276 7.42727 13.9449 6.62841 13.6581V10.1395C6.62841 10.102 6.62528 10.0653 6.61927 10.0294C6.66989 9.73254 6.51103 9.42944 6.22051 9.30868L5.1566 8.86643L10.1703 7.09158L12.5868 7.89518L15.4663 9.04424V9.47823V14.1071V14.1413L15.4698 14.1752C15.5572 15.018 15.7748 15.716 16.2017 16.1488C16.4294 16.3797 16.7131 16.5297 17.0352 16.5703C17.3483 16.6096 17.6465 16.5393 17.9074 16.4198C18.414 16.1878 18.8765 15.7282 19.2661 15.186C19.6649 14.6311 20.028 13.9335 20.3147 13.1488C21.4169 10.1318 21.4813 5.49989 17.5576 2.39414C17.5199 2.33996 17.4734 2.29053 17.4183 2.24805C15.5913 0.83884 13.2984 0 10.8111 0C4.84028 0 0 4.82884 0 10.7855C0 12.2118 0.578019 13.7294 1.40011 15.1824C2.22833 16.6462 3.34053 18.1071 4.48908 19.4353C6.78677 22.0922 9.28432 24.2794 10.1059 24.9784C10.5174 25.3286 11.1123 25.3221 11.5178 24.977C12.2288 24.3721 14.1802 22.665 16.1745 20.5066C16.4227 20.238 16.4056 19.8196 16.1365 19.5722C15.8673 19.3246 15.4479 19.3417 15.1999 19.6102C13.3848 21.5746 11.6018 23.1595 10.8111 23.8394C9.8837 23.0419 7.59693 21.0044 5.49283 18.5714C4.3759 17.2798 3.32405 15.8923 2.55458 14.5323C1.77898 13.1615 1.32567 11.88 1.32567 10.7855ZM14.2994 9.63945C14.4542 9.97039 14.3107 10.3639 13.979 10.5184L10.8583 11.9712C10.5527 12.1134 10.1987 12.1087 9.89708 11.9582L8.3205 11.1718C7.99307 11.0085 7.86035 10.6113 8.02407 10.2846C8.18779 9.95797 8.58593 9.82557 8.91336 9.9889L10.3945 10.7277L13.4184 9.31985C13.7502 9.16541 14.1445 9.3085 14.2994 9.63945Z" fill="#2986F1"/>
</svg>
